<?xml version="1.0" encoding="utf-8"?>
<!-- Generator: Adobe Illustrator 16.0.0, SVG Export Plug-In . SVG Version: 6.00 Build 0)  -->
<!DOCTYPE svg PUBLIC "-//W3C//DTD SVG 1.1//EN" "http://www.w3.org/Graphics/SVG/1.1/DTD/svg11.dtd">
<svg version="1.1" id="Layer_1" xmlns="http://www.w3.org/2000/svg" xmlns:xlink="http://www.w3.org/1999/xlink" x="0px" y="0px"
	 width="400px" height="400px" viewBox="0 0 400 400" enable-background="new 0 0 400 400" xml:space="preserve">
<circle fill="#E1E6E9" cx="201.001" cy="188.063" r="183.185"/>
<g>
	<path fill="#FDBF5E" d="M164.42,319.979c4.537,27.398,17.132,53.662,37.666,74.794c21.131-21.132,33.667-47.396,37.666-74.794
		H164.42L164.42,319.979z"/>
	<path fill="#2EA2DB" d="M202.086,277.18c43.934,0,81.599,25.131,95.328,59.393c3.998-9.131,5.73-19.399,5.73-29.666
		c0-49.066-45.665-89.597-101.596-89.597S99.954,257.242,99.954,306.906c0,10.267,2.269,20.535,5.73,29.666
		C120.487,301.713,158.152,277.18,202.086,277.18z"/>
	<g>
		<rect x="151.289" y="260.048" fill="#FFFFFF" width="101.595" height="59.931"/>
		<path fill="#FFFFFF" d="M305.949,135.054c0-60.528-49.663-108.46-109.593-105.595c-51.395,2.865-94.193,44.53-98.193,96.462
			c-2.269,26.264,5.134,51.395,18.862,70.794c16.534,23.996,28.533,23.399,32.531,51.933l1.732,11.399h101.595l1.135-7.999
			c3.998-30.264,16.534-31.397,33.666-56.528C299.145,178.45,305.949,157.856,305.949,135.054z"/>
	</g>
	<g>
		<rect x="151.289" y="314.309" fill="#193651" width="101.595" height="11.4"/>
		<rect x="196.356" y="211.52" fill="#193651" width="11.401" height="10.864"/>
		<rect x="196.356" y="229.248" fill="#193651" width="11.401" height="10.863"/>
		<path fill="#193651" d="M196.356,23.729c-54.2,2.866-99.328,46.799-103.864,101.596c-2.269,26.801,5.133,53.066,19.997,74.793
			c5.731,8.536,11.401,14.267,15.998,18.265c8.536,8.536,13.132,13.73,15.997,30.803l1.731,10.863v65.661h112.996v-65.064
			l1.133-7.401c2.27-18.862,8-24.533,17.133-34.264c4.536-5.134,9.729-10.863,15.998-19.399
			c13.131-18.862,19.398-40.531,19.398-63.333C311.681,71.661,259.748,20.863,196.356,23.729z M247.153,314.309h-90.134v-18.863
			h90.194v18.863H247.153z M247.153,284.582h-90.134V265.72h90.194v18.862H247.153z M282.551,192.12
			c-5.73,7.999-10.268,13.132-14.863,18.265c-9.133,10.268-16.535,18.268-19.998,40.531v3.402h-39.933v-5.133h-11.401v5.133h-39.934
			l-0.596-6.268c-2.865-21.131-9.729-28.532-18.862-37.666c-4.537-4.535-9.133-9.729-14.863-17.131
			c-13.729-19.399-19.998-42.8-18.266-66.795c3.999-49.664,43.933-88.463,93.059-91.328c56.528-2.865,103.327,43.396,103.327,99.865
			C300.279,155.588,294.549,175.585,282.551,192.12z"/>
		<polygon fill="#193651" points="242.02,133.919 222.082,113.923 202.086,133.919 182.089,113.923 162.152,133.919 
			145.559,117.922 137.559,125.921 162.152,150.455 182.089,130.458 196.356,144.724 196.356,203.52 207.816,203.52 
			207.816,144.724 222.082,130.458 242.02,150.455 266.613,125.921 258.614,117.922 		"/>
	</g>
</g>
</svg>
