<?xml version="1.0" encoding="utf-8"?>
<!-- Generator: Adobe Illustrator 16.0.0, SVG Export Plug-In . SVG Version: 6.00 Build 0)  -->
<!DOCTYPE svg PUBLIC "-//W3C//DTD SVG 1.1//EN" "http://www.w3.org/Graphics/SVG/1.1/DTD/svg11.dtd">
<svg version="1.1" id="Capa_1" xmlns="http://www.w3.org/2000/svg" xmlns:xlink="http://www.w3.org/1999/xlink" x="0px" y="0px"
	 width="512px" height="512px" viewBox="0 0 512 512" enable-background="new 0 0 512 512" xml:space="preserve">
<g>
	<path fill="#FFFFFF" d="M456.546,353.275c-13.884,0-26.583,5.143-36.323,13.604l-36.675-24.448
		c12.034-21.765,18.897-46.77,18.897-73.353c0-31.857-9.853-61.45-26.659-85.911l24.743-19.798c8.656,5.591,18.95,8.852,30,8.852
		c30.578,0,55.455-24.877,55.455-55.457s-24.876-55.458-55.455-55.458s-55.458,24.877-55.458,55.458
		c0,10.204,2.783,19.768,7.61,27.99l-23.168,18.538c-27.656-28.53-66.359-46.292-109.137-46.292
		c-37.333,0-71.557,13.529-98.053,35.934l-49.218-48.769c4.95-8.296,7.805-17.981,7.805-28.324
		c0-30.579-24.875-55.456-55.453-55.456C24.877,20.386,0,45.263,0,75.842c0,30.578,24.877,55.456,55.458,55.456
		c10.945,0,21.154-3.202,29.759-8.699l48.953,48.508c-22.363,26.485-35.863,60.68-35.863,97.973
		c0,32.376,10.175,62.414,27.488,87.103l-46.451,38.71c-5.565-2.861-11.865-4.488-18.54-4.488c-22.438,0-40.692,18.254-40.692,40.69
		c0,22.438,18.254,40.69,40.692,40.69c22.436,0,40.688-18.253,40.688-40.69c0-6.38-1.479-12.42-4.106-17.8l44.869-37.393
		c27.586,27.922,65.869,45.252,108.125,45.252c19.872,0,38.86-3.835,56.276-10.8l11.446,22.888
		c-6.237,6.19-10.106,14.761-10.106,24.22c0,18.83,15.318,34.15,34.147,34.15c18.831,0,34.149-15.32,34.149-34.15
		c0-18.829-15.318-34.148-34.149-34.148c-0.096,0-0.187,0.014-0.281,0.014l-12.248-24.495c15.177-9.303,28.6-21.193,39.66-35.053
		l35.956,23.969c-2.658,6.479-4.134,13.561-4.134,20.983c0,30.577,24.875,55.454,55.454,55.454s55.455-24.875,55.455-55.454
		C512,378.152,487.125,353.275,456.546,353.275z M430.529,86.994c16.415,0,29.77,13.356,29.77,29.773
		c0,16.416-13.354,29.771-29.77,29.771c-16.416,0-29.772-13.355-29.772-29.771C400.757,100.351,414.113,86.994,430.529,86.994z
		 M60.802,446.099c-8.274,0-15.007-6.731-15.007-15.006c0-8.273,6.733-15.005,15.007-15.005c8.272,0,15.002,6.731,15.002,15.005
		C75.804,439.367,69.075,446.099,60.802,446.099z M350.604,457.463c0,4.67-3.798,8.466-8.464,8.466s-8.462-3.798-8.462-8.466
		s3.796-8.462,8.462-8.462S350.604,452.795,350.604,457.463z M55.458,105.611c-16.417,0-29.773-13.354-29.773-29.769
		c0-16.417,13.356-29.771,29.773-29.771c16.413,0,29.768,13.354,29.768,29.771C85.226,92.256,71.871,105.611,55.458,105.611z
		 M250.376,395.469c-69.689,0-126.387-56.697-126.387-126.39c0-69.693,56.696-126.392,126.387-126.392
		c69.688,0,126.385,56.698,126.385,126.392C376.76,338.77,320.064,395.469,250.376,395.469z M456.546,438.502
		c-16.415,0-29.77-13.354-29.77-29.769c0-16.417,13.354-29.772,29.77-29.772c16.414,0,29.769,13.355,29.769,29.772
		C486.314,425.147,472.96,438.502,456.546,438.502z"/>
</g>
</svg>
