<?xml version="1.0" encoding="utf-8"?>
<!-- Generator: Adobe Illustrator 16.0.0, SVG Export Plug-In . SVG Version: 6.00 Build 0)  -->
<!DOCTYPE svg PUBLIC "-//W3C//DTD SVG 1.1//EN" "http://www.w3.org/Graphics/SVG/1.1/DTD/svg11.dtd">
<svg version="1.1" id="Capa_1" xmlns="http://www.w3.org/2000/svg" xmlns:xlink="http://www.w3.org/1999/xlink" x="0px" y="0px"
	 width="512px" height="512px" viewBox="0 0 512 512" enable-background="new 0 0 512 512" xml:space="preserve">
<path fill="#FFFFFF" d="M475.293,93.456h-70.49V50.373c0-6.489-5.258-11.748-11.748-11.748s-11.748,5.259-11.748,11.748v43.083
	H130.694V50.373c0-6.489-5.26-11.748-11.748-11.748c-6.489,0-11.748,5.259-11.748,11.748v43.083h-70.49
	c-6.49,0-11.748,5.258-11.748,11.748v356.423c0,6.488,5.258,11.748,11.748,11.748h438.584c6.488,0,11.747-5.26,11.747-11.748
	V105.204C487.04,98.714,481.781,93.456,475.293,93.456z M288.109,229.113v56.266h-64.219v-56.266H288.109z M463.545,285.378H399.32
	v-56.266h64.225V285.378z M375.824,285.378h-64.219v-56.266h64.219V285.378L375.824,285.378z M223.891,308.873h64.219v56.258
	h-64.219V308.873L223.891,308.873z M223.891,388.626h64.219v61.254h-64.219V388.626L223.891,388.626z M311.605,388.626h64.219
	v61.254h-64.219V388.626z M311.605,365.131v-56.258h64.219v56.258H311.605z M399.32,308.873h64.225v56.258H399.32V308.873z
	 M107.198,116.952v43.089c0,6.49,5.258,11.748,11.748,11.748c6.488,0,11.748-5.258,11.748-11.748v-43.089h250.613v43.089
	c0,6.49,5.258,11.748,11.748,11.748s11.748-5.258,11.748-11.748v-43.089h58.742v88.667H48.456v-88.667H107.198z M48.456,229.113
	h151.94V449.88H48.456V229.113z M399.32,449.88v-61.254h64.225v61.254H399.32z"/>
</svg>
