<?xml version="1.0" encoding="iso-8859-1"?>
<!-- Generator: Adobe Illustrator 18.0.0, SVG Export Plug-In . SVG Version: 6.00 Build 0)  -->
<!DOCTYPE svg PUBLIC "-//W3C//DTD SVG 1.1//EN" "http://www.w3.org/Graphics/SVG/1.1/DTD/svg11.dtd">
<svg xmlns="http://www.w3.org/2000/svg" xmlns:xlink="http://www.w3.org/1999/xlink" version="1.1" id="Capa_1" x="0px" y="0px" viewBox="0 0 299.983 299.983" style="enable-background:new 0 0 299.983 299.983;" xml:space="preserve" width="512px" height="512px">
<g>
	<path d="M156.514,138.229v-3.905c12.145-3.218,21.125-14.316,21.125-27.478s-8.98-24.26-21.125-27.477V53.246   c5.406,2.282,10.205,6.32,12.084,8.239c2.88,2.964,7.619,3.038,10.593,0.163c2.977-2.88,3.056-7.629,0.176-10.605   c-1.204-1.244-10.591-10.613-22.853-13.569v-3.857c0-4.143-3.357-7.5-7.5-7.5c-4.143,0-7.5,3.357-7.5,7.5v4.052   c-11.882,3.39-20.612,14.356-20.612,27.337c0,12.978,8.731,23.943,20.612,27.332v25.453c-5.174-2.909-9.953-7.605-11.754-9.704   c-2.686-3.153-7.415-3.536-10.573-0.851c-3.154,2.685-3.535,7.418-0.851,10.573c1.263,1.482,10.979,12.523,23.178,16.236v4.183   c0,4.143,3.357,7.5,7.5,7.5C153.157,145.729,156.514,142.371,156.514,138.229z M162.639,106.846c0,4.719-2.445,8.869-6.125,11.263   V95.584C160.194,97.978,162.639,102.127,162.639,106.846z M135.902,65.006c0-4.498,2.222-8.477,5.612-10.915v21.825   C138.124,73.48,135.902,69.502,135.902,65.006z" fill="#FFFFFF"/>
	<path d="M141.514,251.566v40.917c0,4.142,3.357,7.5,7.5,7.5c4.143,0,7.5-3.358,7.5-7.5v-8.639h49.218h0.004h0.001   c21.926,0,39.77-17.845,39.771-39.776v-32.278c0-4.142-3.357-7.5-7.5-7.5l-32.273-0.002c-21.932,0-39.774,17.844-39.774,39.777   l0.002,24.779h-9.448V170.52c43.505-3.821,77.749-40.511,77.749-85.086C234.263,38.325,196.021,0,149.014,0   c-47.009,0-85.253,38.325-85.253,85.434c0,44.575,34.246,81.265,77.753,85.086v66.046h-7.494v-24.776   c0.001-21.934-17.84-39.779-39.771-39.78l-32.274-0.001c-1.989,0-3.896,0.79-5.303,2.196c-1.407,1.407-2.197,3.314-2.197,5.304   v32.277c0,21.936,17.843,39.781,39.774,39.781L141.514,251.566z M94.249,236.566c-13.661,0-24.774-11.117-24.774-24.781v-24.777   l24.774,0.001c13.659,0.001,24.772,11.117,24.771,24.78v24.777H94.249z M78.761,85.434C78.761,46.597,110.277,15,149.014,15   c38.735,0,70.249,31.597,70.249,70.434c0,38.838-31.514,70.436-70.249,70.436C110.277,155.869,78.761,124.271,78.761,85.434z    M230.508,244.066c-0.002,13.662-11.114,24.777-24.771,24.777h-0.004l-24.77-0.002l-0.002-24.777   c0-13.662,11.113-24.777,24.774-24.777l24.773,0.002V244.066z" fill="#FFFFFF"/>
</g>
<g>
</g>
<g>
</g>
<g>
</g>
<g>
</g>
<g>
</g>
<g>
</g>
<g>
</g>
<g>
</g>
<g>
</g>
<g>
</g>
<g>
</g>
<g>
</g>
<g>
</g>
<g>
</g>
<g>
</g>
</svg>
