<?xml version="1.0" encoding="utf-8"?>
<!-- Generator: Adobe Illustrator 16.0.0, SVG Export Plug-In . SVG Version: 6.00 Build 0)  -->
<!DOCTYPE svg PUBLIC "-//W3C//DTD SVG 1.1//EN" "http://www.w3.org/Graphics/SVG/1.1/DTD/svg11.dtd">
<svg version="1.1" id="Capa_1" xmlns="http://www.w3.org/2000/svg" xmlns:xlink="http://www.w3.org/1999/xlink" x="0px" y="0px"
	 width="512px" height="512px" viewBox="0 0 512 512" enable-background="new 0 0 512 512" xml:space="preserve">
<g>
	<path fill="#FFFFFF" stroke="#FFFFFF" stroke-width="5" stroke-miterlimit="10" d="M262.936,144.896H151.832V256h111.104V144.896z
		 M247.064,240.128h-79.36v-79.36h79.36V240.128z"/>
	<path fill="#FFFFFF" stroke="#FFFFFF" stroke-width="5" stroke-miterlimit="10" d="M429.592,144.896H302.616
		c-4.39,0-7.937,3.548-7.937,7.937s3.547,7.936,7.937,7.936h126.976c4.389,0,7.936-3.547,7.936-7.936
		S433.98,144.896,429.592,144.896z"/>
	<path fill="#FFFFFF" stroke="#FFFFFF" stroke-width="5" stroke-miterlimit="10" d="M429.592,192.512H302.616
		c-4.39,0-7.937,3.548-7.937,7.936c0,4.389,3.547,7.936,7.937,7.936h126.976c4.389,0,7.936-3.547,7.936-7.936
		C437.527,196.06,433.98,192.512,429.592,192.512z"/>
	<path fill="#FFFFFF" stroke="#FFFFFF" stroke-width="5" stroke-miterlimit="10" d="M429.592,240.128H302.616
		c-4.39,0-7.937,3.547-7.937,7.936s3.547,7.936,7.937,7.936h126.976c4.389,0,7.936-3.547,7.936-7.936
		S433.98,240.128,429.592,240.128z"/>
	<path fill="#FFFFFF" stroke="#FFFFFF" stroke-width="5" stroke-miterlimit="10" d="M429.592,287.743H167.704
		c-4.389,0-7.936,3.548-7.936,7.937s3.547,7.937,7.936,7.937h261.888c4.389,0,7.936-3.548,7.936-7.937
		S433.98,287.743,429.592,287.743z"/>
	<path fill="#FFFFFF" stroke="#FFFFFF" stroke-width="5" stroke-miterlimit="10" d="M286.744,335.359h-119.04
		c-4.389,0-7.936,3.548-7.936,7.938c0,4.388,3.547,7.936,7.936,7.936h119.04c4.389,0,7.936-3.548,7.936-7.936
		C294.68,338.907,291.133,335.359,286.744,335.359z"/>
	<path fill="#FFFFFF" stroke="#FFFFFF" stroke-width="5" stroke-miterlimit="10" d="M286.744,382.976h-119.04
		c-4.389,0-7.936,3.548-7.936,7.937c0,4.388,3.547,7.936,7.936,7.936h119.04c4.389,0,7.936-3.548,7.936-7.936
		C294.68,386.523,291.133,382.976,286.744,382.976z"/>
	<path fill="#FFFFFF" stroke="#FFFFFF" stroke-width="5" stroke-miterlimit="10" d="M286.744,430.592h-119.04
		c-4.389,0-7.936,3.547-7.936,7.936s3.547,7.937,7.936,7.937h119.04c4.389,0,7.936-3.548,7.936-7.937
		S291.133,430.592,286.744,430.592z"/>
	<path fill="#FFFFFF" stroke="#FFFFFF" stroke-width="5" stroke-miterlimit="10" d="M326.424,446.464h111.104V335.359H326.424
		V446.464z M342.297,351.232h79.359v79.359h-79.359V351.232z"/>
	<path fill="#FFFFFF" stroke="#FFFFFF" stroke-width="5" stroke-miterlimit="10" d="M485.145,121.088
		c0-0.135-0.072-0.246-0.08-0.381V17.92H104.216V256h-79.36v190.464c0,26.261,21.356,47.616,47.616,47.616h365.055
		c26.213,0,47.537-21.332,47.537-47.537V121.469C485.072,121.334,485.145,121.223,485.145,121.088z M469.192,33.792v79.36H120.088
		v-79.36H469.192z M40.728,446.464V271.871h63.488v174.593c0,17.507-14.237,31.744-31.744,31.744S40.728,463.971,40.728,446.464z
		 M437.527,478.208H107.938c0.127-0.144,0.214-0.31,0.333-0.452c1.619-1.85,3.095-3.825,4.413-5.912
		c0.214-0.334,0.413-0.667,0.619-1.017c1.286-2.143,2.421-4.38,3.357-6.729c0.127-0.326,0.238-0.65,0.357-0.976
		c0.913-2.429,1.659-4.937,2.167-7.532c0.048-0.238,0.063-0.484,0.111-0.713c0.492-2.73,0.793-5.541,0.793-8.413V256V129.024
		h349.104v317.519C469.192,464.002,454.987,478.208,437.527,478.208z"/>
	<path fill="#FFFFFF" stroke="#FFFFFF" stroke-width="5" stroke-miterlimit="10" d="M389.912,49.664H199.448V97.28h190.464V49.664z
		 M374.04,81.408H215.32V65.536h158.72V81.408z"/>
</g>
</svg>
